<?xml version="1.0" encoding="iso-8859-1"?>
<!-- Uploaded to: SVG Repo, www.svgrepo.com, Generator: SVG Repo Mixer Tools -->
<svg version="1.1" id="Layer_1" xmlns="http://www.w3.org/2000/svg" xmlns:xlink="http://www.w3.org/1999/xlink" 
	 viewBox="0 0 480 480" xml:space="preserve">
<rect x="56" y="424" style="fill:#FCB641;" width="368" height="48"/>
<rect x="8" y="224" style="fill:#E65039;" width="464" height="200"/>
<path style="fill:#132C47;" d="M472,432H8c-4.416,0-8-3.576-8-8V224c0-4.424,3.584-8,8-8h464c4.416,0,8,3.576,8,8v200
	C480,428.424,476.416,432,472,432z M16,416h448V232H16V416z"/>
<g>
	<rect x="8" y="424" style="fill:#FCB641;" width="48" height="48"/>
	<rect x="424" y="424" style="fill:#FCB641;" width="48" height="48"/>
	<rect x="168" y="128" style="fill:#FCB641;" width="144" height="64"/>
</g>
<rect x="168" y="128" style="fill:#FDC567;" width="144" height="16"/>
<polygon style="fill:#3684C1;" points="56,144 24,176 24,224 56,224 64,192 168,192 168,144 "/>
<polygon style="fill:#5E9DCD;" points="56,144 24,176 24,192 56,160 168,160 168,144 "/>
<polygon style="fill:#3684C1;" points="424,144 456,176 456,224 424,224 416,192 312,192 312,144 "/>
<polygon style="fill:#5E9DCD;" points="424,144 312,144 312,160 424,160 456,192 456,176 "/>
<circle style="fill:#E65039;" cx="240" cy="160" r="32"/>
<path style="fill:#EB7361;" d="M240,144c14.896,0,27.296,10.224,30.872,24c0.664-2.568,1.128-5.224,1.128-8
	c0-17.672-14.328-32-32-32s-32,14.328-32,32c0,2.776,0.464,5.432,1.128,8C212.704,154.224,225.104,144,240,144z"/>
<rect x="104" y="144" style="fill:#FCB641;" width="32" height="48"/>
<rect x="104" y="144" style="fill:#FDC567;" width="32" height="16"/>
<rect x="344" y="144" style="fill:#FCB641;" width="32" height="48"/>
<rect x="344" y="144" style="fill:#FDC567;" width="32" height="16"/>
<circle style="fill:#E65039;" cx="240" cy="32" r="24"/>
<path style="fill:#EB7361;" d="M240,24c10.432,0,19.224,6.696,22.528,16c0.896-2.512,1.472-5.176,1.472-8c0-13.256-10.744-24-24-24
	s-24,10.744-24,24c0,2.824,0.576,5.488,1.472,8C220.776,30.696,229.568,24,240,24z"/>
<g>
	<path style="fill:#132C47;" d="M176,440h-40c-4.416,0-8,3.576-8,8s3.584,8,8,8h40c4.416,0,8-3.576,8-8S180.416,440,176,440z"/>
	<path style="fill:#132C47;" d="M336,440h-40c-4.416,0-8,3.576-8,8s3.584,8,8,8h40c4.416,0,8-3.576,8-8S340.416,440,336,440z"/>
	<path style="fill:#132C47;" d="M40,256v136c0,4.424,3.584,8,8,8s8-3.576,8-8V256c0-4.424-3.584-8-8-8S40,251.576,40,256z"/>
	<path style="fill:#132C47;" d="M72,256v136c0,4.424,3.584,8,8,8s8-3.576,8-8V256c0-4.424-3.584-8-8-8S72,251.576,72,256z"/>
	<path style="fill:#132C47;" d="M104,256v136c0,4.424,3.584,8,8,8s8-3.576,8-8V256c0-4.424-3.584-8-8-8S104,251.576,104,256z"/>
	<path style="fill:#132C47;" d="M136,256v136c0,4.424,3.584,8,8,8s8-3.576,8-8V256c0-4.424-3.584-8-8-8S136,251.576,136,256z"/>
	<path style="fill:#132C47;" d="M168,256v136c0,4.424,3.584,8,8,8s8-3.576,8-8V256c0-4.424-3.584-8-8-8S168,251.576,168,256z"/>
	<path style="fill:#132C47;" d="M200,256v136c0,4.424,3.584,8,8,8s8-3.576,8-8V256c0-4.424-3.584-8-8-8S200,251.576,200,256z"/>
	<path style="fill:#132C47;" d="M232,256v136c0,4.424,3.584,8,8,8c4.416,0,8-3.576,8-8V256c0-4.424-3.584-8-8-8S232,251.576,232,256
		z"/>
	<path style="fill:#132C47;" d="M264,256v136c0,4.424,3.584,8,8,8s8-3.576,8-8V256c0-4.424-3.584-8-8-8S264,251.576,264,256z"/>
	<path style="fill:#132C47;" d="M296,256v136c0,4.424,3.584,8,8,8s8-3.576,8-8V256c0-4.424-3.584-8-8-8S296,251.576,296,256z"/>
	<path style="fill:#132C47;" d="M328,256v136c0,4.424,3.584,8,8,8s8-3.576,8-8V256c0-4.424-3.584-8-8-8S328,251.576,328,256z"/>
	<path style="fill:#132C47;" d="M360,256v136c0,4.424,3.584,8,8,8s8-3.576,8-8V256c0-4.424-3.584-8-8-8S360,251.576,360,256z"/>
	<path style="fill:#132C47;" d="M392,256v136c0,4.424,3.584,8,8,8s8-3.576,8-8V256c0-4.424-3.584-8-8-8S392,251.576,392,256z"/>
	<path style="fill:#132C47;" d="M424,256v136c0,4.424,3.584,8,8,8s8-3.576,8-8V256c0-4.424-3.584-8-8-8S424,251.576,424,256z"/>
	<circle style="fill:#132C47;" cx="32" cy="448" r="8"/>
	<path style="fill:#132C47;" d="M472,416h-48H56H8c-4.416,0-8,3.576-8,8v48c0,4.424,3.584,8,8,8h48h368h48c4.416,0,8-3.576,8-8v-48
		C480,419.576,476.416,416,472,416z M16,432h32v32H16V432z M64,432h352v32H64V432z M464,464h-32v-32h32V464z"/>
	<circle style="fill:#132C47;" cx="448" cy="448" r="8"/>
	<path style="fill:#132C47;" d="M24,232h32c3.672,0,6.872-2.496,7.76-6.064L70.248,200H104h32h32h144h32h32h33.752l6.488,25.936
		c0.888,3.568,4.088,6.064,7.76,6.064h32c4.416,0,8-3.576,8-8v-48c0-2.128-0.84-4.16-2.344-5.656l-32-32
		C428.16,136.84,426.12,136,424,136h-8V8c0-4.424-3.584-8-8-8s-8,3.576-8,8v128h-24h-32h-24v-8c0-4.424-3.584-8-8-8h-2.664
		l-37.552-90.112C270.68,13.24,256.92,0,240,0s-30.68,13.24-31.784,29.888L170.664,120H168c-4.416,0-8,3.576-8,8v8h-24h-32H80V8
		c0-4.424-3.584-8-8-8s-8,3.576-8,8v128h-8c-2.12,0-4.16,0.84-5.656,2.344l-32,32C16.84,171.84,16,173.872,16,176v48
		C16,228.424,19.584,232,24,232z M176,144v-8h32.208c-3.536,4.672-6.184,10.056-7.392,16H200c-4.416,0-8,3.576-8,8s3.584,8,8,8
		h0.808c1.216,5.944,3.856,11.328,7.392,16H176V144z M304,136v8v40h-32.208c3.536-4.672,6.184-10.056,7.392-16H280
		c4.416,0,8-3.576,8-8s-3.584-8-8-8h-0.808c-1.216-5.944-3.856-11.328-7.392-16H304z M262.616,152.28
		C258.88,152.96,256,156.072,256,160s2.88,7.04,6.616,7.72C259.376,177.152,250.52,184,240,184s-19.376-6.848-22.616-16.28
		c3.736-0.68,6.616-3.792,6.616-7.72s-2.88-7.04-6.616-7.72C220.624,142.848,229.48,136,240,136
		C250.52,136,259.376,142.848,262.616,152.28z M408,168c4.416,0,8-3.576,8-8v-8h4.688L448,179.312V216h-17.752l-6.488-25.936
		c-0.888-3.568-4.088-6.064-7.76-6.064h-32v-32h16v8C400,164.424,403.584,168,408,168z M368,152v32h-16v-32H368z M336,152v32h-16
		v-32H336z M240,16c8.824,0,16,7.176,16,16s-7.176,16-16,16s-16-7.176-16-16S231.176,16,240,16z M215.96,52.896
		c4.176,4.8,9.704,8.32,16.04,9.968V72c0,4.424,3.584,8,8,8c4.416,0,8-3.576,8-8v-9.136c6.336-1.648,11.864-5.168,16.04-9.968
		L292,120H188L215.96,52.896z M160,184h-16v-32h16V184z M128,152v32h-16v-32H128z M32,179.312L59.312,152H64v8c0,4.424,3.584,8,8,8
		s8-3.576,8-8v-8h16v32H64c-3.672,0-6.872,2.496-7.76,6.064L49.752,216H32V179.312z"/>
</g>
</svg>